<?xml version="1.0" encoding="UTF-8"?>
<!DOCTYPE svg PUBLIC "-//W3C//DTD SVG 1.1//EN" "http://www.w3.org/Graphics/SVG/1.1/DTD/svg11.dtd">
<!-- Creator: CorelDRAW 2019 (64 Bit) -->
<svg xmlns="http://www.w3.org/2000/svg" xml:space="preserve" width="4337px" height="591px" version="1.1" style="shape-rendering:geometricPrecision; text-rendering:geometricPrecision; image-rendering:optimizeQuality; fill-rule:evenodd; clip-rule:evenodd"
viewBox="0 0 4337 590.6"
 xmlns:xlink="http://www.w3.org/1999/xlink">
 <defs>
  <style type="text/css">
   <![CDATA[
    .fil1 {fill:black}
    .fil0 {fill:black}
    .fil2 {fill:black;fill-rule:nonzero}
   ]]>
  </style>
 </defs>
 <g id="Camada_x0020_1">
  <metadata id="CorelCorpID_0Corel-Layer"/>
  <g id="_1991449439616">
   <path class="fil0" d="M4337 472.48l-2360.84 0 -195.51 -157.95 361.57 -314.53 2194.78 0 0 472.48zm-35 -35.01l0 -402.47 -2146.68 0 -320.2 278.53 153.41 123.94 2313.47 0z"/>
   <path class="fil1" d="M1742.26 118.12l-99.79 85.53 91.64 73.32 185.33 -158.85 -177.18 0zm-590.6 0l259.86 283.49 102.65 -87.98 -392.04 -313.63 177.18 0 300.39 240.31 91.65 73.32 198.56 158.85 -177.18 0 -106.92 -85.54 -99.79 85.54 -29.53 0 -147.65 0 -29.53 0 -81.21 -88.59 -232.54 0 77.51 -88.59 73.83 0 -71.77 -78.29 -326.88 373.59 -177.18 0 103.35 -118.12 -14.76 0 -118.12 0 -29.53 0 -88.59 -212.62 -88.59 212.62 -29.53 0 -118.12 0 -29.53 0 -147.65 -354.36 147.65 0 88.59 212.61 88.59 -212.61 29.53 0 118.12 0 29.53 0 88.59 212.61 88.59 -212.61 147.64 0 -134.22 322.14 281.87 -322.14 177.18 0z"/>
   <path class="fil2" d="M2310.39 347.47c-34.19,0 -62.43,-11.36 -84.73,-34.09 -22.29,-22.72 -33.43,-50.75 -33.43,-84.07 0,-33.55 11.14,-61.63 33.43,-84.24 22.3,-22.62 50.54,-33.93 84.73,-33.93 20.56,0 39.55,4.82 56.97,14.45 17.42,9.63 31,22.67 40.74,39.12l-38.63 22.39c-5.62,-10.17 -13.63,-18.12 -24.02,-23.85 -10.39,-5.74 -22.07,-8.61 -35.06,-8.61 -22.07,0 -39.87,6.93 -53.4,20.78 -13.52,13.85 -20.29,31.81 -20.29,53.89 0,21.85 6.77,39.71 20.29,53.56 13.53,13.85 31.33,20.77 53.4,20.77 12.99,0 24.73,-2.86 35.22,-8.6 10.5,-5.73 18.45,-13.58 23.86,-23.53l38.63 22.4c-9.74,16.44 -23.26,29.48 -40.57,39.11 -17.32,9.63 -36.36,14.45 -57.14,14.45zm125.95 -4.55l0 -236.97 41.88 0 0 236.97 -41.88 0zm218.47 -20.29c-16.66,16.56 -37,24.84 -61.02,24.84 -24.03,0 -44.32,-8.28 -60.87,-24.84 -16.56,-16.55 -24.83,-36.84 -24.83,-60.86 0,-24.02 8.27,-44.31 24.83,-60.87 16.55,-16.55 36.84,-24.83 60.87,-24.83 24.02,0 44.36,8.28 61.02,24.83 16.67,16.56 25,36.85 25,60.87 0,24.02 -8.33,44.31 -25,60.86zm-92.35 -28.72c8.33,8.44 18.77,12.66 31.33,12.66 12.55,0 23.04,-4.22 31.48,-12.66 8.44,-8.44 12.66,-19.16 12.66,-32.14 0,-12.99 -4.22,-23.7 -12.66,-32.14 -8.44,-8.44 -18.93,-12.66 -31.48,-12.66 -12.56,0 -23,4.22 -31.33,12.66 -8.33,8.44 -12.5,19.15 -12.5,32.14 0,12.98 4.17,23.7 12.5,32.14zm254.02 -113.3l41.87 0 0 162.31 -41.87 0 0 -18.18c-10.18,15.15 -26.3,22.73 -48.37,22.73 -17.75,0 -32.41,-5.95 -43.99,-17.86 -11.58,-11.9 -17.37,-28.35 -17.37,-49.34l0 -99.66 41.88 0 0 94.47c0,10.82 2.92,19.1 8.77,24.83 5.84,5.74 13.63,8.6 23.37,8.6 10.82,0 19.48,-3.35 25.97,-10.06 6.49,-6.71 9.74,-16.77 9.74,-30.19l0 -87.65zm203.21 -64.92l41.88 0 0 227.23 -41.88 0 0 -19.15c-12.34,15.8 -29.87,23.7 -52.59,23.7 -21.86,0 -40.52,-8.28 -56,-24.84 -15.47,-16.55 -23.21,-36.84 -23.21,-60.86 0,-24.02 7.74,-44.31 23.21,-60.87 15.48,-16.55 34.14,-24.83 56,-24.83 22.72,0 40.25,7.9 52.59,23.7l0 -84.08zm-77.1 179.03c8.55,8.55 19.32,12.82 32.3,12.82 12.99,0 23.7,-4.27 32.14,-12.82 8.44,-8.55 12.66,-19.53 12.66,-32.95 0,-13.42 -4.22,-24.4 -12.66,-32.95 -8.44,-8.55 -19.15,-12.82 -32.14,-12.82 -12.98,0 -23.75,4.27 -32.3,12.82 -8.55,8.55 -12.82,19.53 -12.82,32.95 0,13.42 4.27,24.4 12.82,32.95zm284.32 48.2l-60.17 -227.23 46.86 0 43.71 168.48 47.4 -168.48 38.79 0 47.61 168.04 43.12 -168.04 43.18 0 -59.73 227.23 -50.97 0 -43.07 -150.78 -42.74 150.78 -53.99 0zm382.29 -162.31l41.88 0 0 162.31 -41.88 0 0 -19.15c-12.55,15.8 -30.19,23.7 -52.91,23.7 -21.64,0 -40.2,-8.28 -55.67,-24.84 -15.48,-16.55 -23.21,-36.84 -23.21,-60.86 0,-24.02 7.73,-44.31 23.21,-60.87 15.47,-16.55 34.03,-24.83 55.67,-24.83 22.72,0 40.36,7.9 52.91,23.7l0 -19.16zm-77.26 114.11c8.44,8.55 19.15,12.82 32.14,12.82 12.98,0 23.75,-4.27 32.3,-12.82 8.55,-8.55 12.82,-19.53 12.82,-32.95 0,-13.42 -4.27,-24.4 -12.82,-32.95 -8.55,-8.55 -19.32,-12.82 -32.3,-12.82 -12.99,0 -23.7,4.27 -32.14,12.82 -8.44,8.55 -12.66,19.53 -12.66,32.95 0,13.42 4.22,24.4 12.66,32.95zm157.12 48.2l0 -236.97 41.87 0 0 236.97 -41.87 0zm80.18 0l0 -236.97 41.88 0 0 236.97 -41.88 0zm115.57 -63.95c5.62,20.35 20.88,30.52 45.77,30.52 16.01,0 28.13,-5.41 36.35,-16.23l33.76 19.47c-16.01,23.16 -39.6,34.74 -70.76,34.74 -26.84,0 -48.37,-8.12 -64.6,-24.35 -16.23,-16.23 -24.35,-36.68 -24.35,-61.35 0,-24.46 8.01,-44.85 24.02,-61.19 16.02,-16.34 36.58,-24.51 61.68,-24.51 23.81,0 43.45,8.22 58.92,24.67 15.47,16.45 23.21,36.79 23.21,61.03 0,5.41 -0.54,11.14 -1.62,17.2l-122.38 0zm-0.65 -32.46l82.77 0c-2.38,-11.04 -7.3,-19.26 -14.77,-24.67 -7.46,-5.41 -15.96,-8.12 -25.48,-8.12 -11.25,0 -20.56,2.87 -27.92,8.61 -7.35,5.73 -12.22,13.79 -14.6,24.18zm241.84 -25.64l-36.68 0 0 67.52c0,5.62 1.4,9.74 4.22,12.33 2.81,2.6 6.92,4.06 12.33,4.38 5.41,0.33 12.12,0.27 20.13,-0.16l0 37.98c-28.78,3.25 -49.07,0.54 -60.87,-8.11 -11.79,-8.66 -17.69,-24.13 -17.69,-46.42l0 -67.52 -28.24 0 0 -40.26 28.24 0 0 -32.78 41.88 -12.66 0 45.44 36.68 0 0 40.26z"/>
  </g>
 </g>
</svg>
